Coordinates
version=1
nRows=4
nColumns=107
inDegrees=yes

Units are S.I. units (second, meters, Newtons, ...)
If the header above contains a line with 'inDegrees', this indicates whether rotational values are in degrees (yes) or radians (no).

endheader
time	sternoclavicular_r2	sternoclavicular_r3	unrotscap_r3	unrotscap_r2	acromioclavicular_r2	acromioclavicular_r3	acromioclavicular_r1	unrothum_r1	unrothum_r3	unrothum_r2	elv_angle	shoulder_elv	shoulder1_r2	shoulder_rot	elbow_flexion	pro_sup	deviation	flexion	proximal_distal_r1	proximal_distal_r3	cmc_flexion	cmc_abduction	mp_flexion	ip_flexion	mcp2_flexion	mcp2_abduction	pm2_flexion	md2_flexion	mcp3_flexion	mcp3_abduction	pm3_flexion	md3_flexion	mcp4_flexion	mcp4_abduction	pm4_flexion	md4_flexion	mcp5_flexion	mcp5_abduction	pm5_flexion	md5_flexion	bicpt_tx	bicpt_ty	bicpt_tz	bicpt2_tx	bicpt2_ty	bicpt2_tz	ptpt_tx	ptpt_ty	ptpt_tz	FCUpt_tx	FCUpt_ty	FCUpt_tz	EDCpt_tx	EDCpt_ty	EDCpt_tz	APLpt_tx	APLpt_ty	APLpt_tz	FPLpt_tx	FPLpt_ty	FPLpt_tz	FPLpt2_tx	FPLpt2_ty	FPLpt2_tz	PEC1pt2_tx	PEC1pt2_ty	PEC1pt2_tz	PEC1pt3_tx	PEC1pt3_ty	PEC1pt3_tz	PEC2pt2_tx	PEC2pt2_ty	PEC2pt2_tz	PEC2pt3_tx	PEC2pt3_ty	PEC2pt3_tz	PEC3pt2_tx	PEC3pt2_ty	PEC3pt2_tz	PEC3pt3_tx	PEC3pt3_ty	PEC3pt3_tz	DELT2pt2a_tx	DELT2pt2a_ty	DELT2pt2a_tz	DELT2pt2_tx	DELT2pt2_ty	DELT2pt2_tz	LAT1pt2_tx	LAT1pt2_ty	LAT1pt2_tz	LAT1pt3_tx	LAT1pt3_ty	LAT1pt3_tz	LAT2pt2_tx	LAT2pt2_ty	LAT2pt2_tz	LAT2pt3_tx	LAT2pt3_ty	LAT2pt3_tz	LAT3pt2_tx	LAT3pt2_ty	LAT3pt2_tz	LAT3pt3_tx	LAT3pt3_ty	LAT3pt3_tz
      0.00000000	     -0.30842833	      0.13063568	     -0.13063568	      0.30842833	     -0.06245046	      0.50470268	      0.22686038	     -0.22686038	     -0.50470268	      0.06245046	    102.36894770	     73.02314888	     -1.78667519	    -42.34178686	     32.28078385	     85.16220828	      0.35731853	     -0.49297433	      0.38042795	     -0.24648716	     40.34467271	    -14.95060482	      1.19314553	      9.90682319	     96.19127061	     13.25466748	     81.98021581	     69.04345681	     92.43853893	      2.50750326	     82.87863337	     48.96983876	     93.25611149	    -13.32470265	     91.02080817	     34.31777652	     75.08865196	    -14.19783844	    100.32495711	      5.34252057	      0.00096775	     -0.03129987	     -0.00489595	      0.01432571	     -0.01896923	     -0.00121902	      0.00125747	     -0.06896885	     -0.00691027	      0.01264187	     -0.18226601	      0.00006099	     -0.01021944	      0.00353215	     -0.00073051	      0.00030086	      0.00012034	      0.00060172	      0.00038510	      0.00115531	      0.00064986	     -0.00001004	     -0.00010434	     -0.00012521	      0.00239354	      0.00839767	      0.00584186	     -0.00782971	      0.01890490	     -0.01793126	      0.00239354	      0.00839767	      0.00584186	      0.00052739	      0.01752557	     -0.00920904	      0.00382712	      0.00466984	      0.01566476	      0.00000000	      0.00712741	      0.00000000	     -0.00685607	     -0.03168396	     -0.00587296	      0.02333051	     -0.00119663	     -0.01432023	     -0.00085194	      0.01428009	     -0.00584186	      0.00235297	      0.02060877	     -0.01703875	     -0.00572015	      0.01237338	     -0.00523333	     -0.01192712	      0.02612608	     -0.02924985	     -0.02239378	      0.01383384	     -0.00701834	     -0.01484805	      0.03018293	     -0.03655217
      0.03333333	     -0.30852929	      0.13067845	     -0.13067845	      0.30852929	     -0.06247091	      0.50486789	      0.22693464	     -0.22693464	     -0.50486789	      0.06247091	    102.37268641	     73.04705283	     -1.78674044	    -42.34340912	     32.28913201	     85.16347627	      0.35732596	     -0.49299154	      0.38043315	     -0.24649577	     40.34145827	    -14.94999976	      1.19124049	      9.90631378	     96.19206865	     13.25437718	     81.98021551	     69.04344550	     92.44021504	      2.50758619	     82.87926888	     48.97001887	     93.25751462	    -13.32426557	     91.02318465	     34.31834672	     75.09023268	    -14.19750830	    100.32651516	      5.34268139	      0.00096802	     -0.03130083	     -0.00489611	      0.01432558	     -0.01897150	     -0.00121880	      0.00125738	     -0.06896891	     -0.00691038	      0.01264201	     -0.18226596	      0.00006102	     -0.01021959	      0.00353222	     -0.00073055	      0.00030086	      0.00012035	      0.00060173	      0.00038511	      0.00115532	      0.00064987	     -0.00001004	     -0.00010441	     -0.00012529	      0.00239432	      0.00840042	      0.00584377	     -0.00783227	      0.01891109	     -0.01793712	      0.00239432	      0.00840042	      0.00584377	      0.00052756	      0.01753131	     -0.00921205	      0.00382805	      0.00467137	      0.01566716	      0.00000000	      0.00713211	      0.00000000	     -0.00685831	     -0.03169433	     -0.00587687	      0.02333089	     -0.00119669	     -0.01432126	     -0.00085222	      0.01428477	     -0.00584377	      0.00235374	      0.02061552	     -0.01704433	     -0.00572202	      0.01237743	     -0.00523504	     -0.01193103	      0.02613463	     -0.02925943	     -0.02240112	      0.01383837	     -0.00702064	     -0.01485291	      0.03019281	     -0.03656414
      0.06666667	     -0.30777761	      0.13036007	     -0.13036007	      0.30777761	     -0.06231870	      0.50363785	      0.22638175	     -0.22638175	     -0.50363785	      0.06231870	    102.92956172	     72.86908444	     -1.79645975	    -44.04636302	     31.94739512	     85.37006611	      0.33863556	     -0.55197632	      0.36571466	     -0.27598816	     39.66984450	    -14.10955541	      0.50849524	      9.69516238	     97.12820366	     13.13186688	     81.83890374	     68.86403579	     93.14065946	      2.24796113	     83.50651397	     50.18602386	     93.44628911	    -13.22388680	     93.01228635	     38.08418687	     75.87323312	    -14.16994745	    106.16078485	      5.49855392	      0.00095672	     -0.03126166	     -0.00488980	      0.01430457	     -0.01887867	     -0.00118364	      0.00124212	     -0.06897878	     -0.00692702	      0.01266570	     -0.18225901	      0.00006660	     -0.01024438	      0.00354351	     -0.00073710	      0.00030960	      0.00012384	      0.00061919	      0.00039628	      0.00118885	      0.00066873	     -0.00001086	     -0.00011747	     -0.00014097	      0.00238849	      0.00837995	      0.00582953	     -0.00781319	      0.01886501	     -0.01789342	      0.00238849	      0.00837995	      0.00582953	      0.00052628	      0.01748860	     -0.00918961	      0.00382110	      0.00465998	      0.01564930	      0.00000000	      0.00709719	      0.00000000	     -0.00684160	     -0.03161711	     -0.00584785	      0.02378534	     -0.00125958	     -0.01536961	     -0.00085014	      0.01424997	     -0.00582953	      0.00234801	      0.02056529	     -0.01700280	     -0.00570808	      0.01234727	     -0.00522229	     -0.01190196	      0.02607096	     -0.02918814	     -0.02234654	      0.01380465	     -0.00700353	     -0.01481673	      0.03011925	     -0.03647506
      0.10000000	     -0.30883069	      0.13080610	     -0.13080610	      0.30883069	     -0.06253193	      0.50536108	      0.22715633	     -0.22715633	     -0.50536108	      0.06253193	    102.48988781	     73.11841067	     -1.78878599	    -42.22737191	     31.80467567	     83.48376387	      0.35895679	     -0.50988851	      0.38169029	     -0.25494425	     39.23942080	    -13.52416516	     -0.01057759	     10.45224047	     97.13183932	     13.03472488	     81.97130765	     68.94377210	     93.05065367	      2.00402815	     83.93926617	     50.84175395	     92.99840619	    -13.20188433	     94.62608994	     38.68690612	     77.46249617	    -14.11187392	    115.00217803	      5.82048767	      0.00095200	     -0.03124530	     -0.00488716	      0.01449277	     -0.01883990	     -0.00150251	      0.00138149	     -0.06888866	     -0.00677507	      0.01244992	     -0.18232205	      0.00001687	     -0.01001803	      0.00344091	     -0.00067814	      0.00030396	      0.00012159	      0.00060793	      0.00038907	      0.00116722	      0.00065656	     -0.00001130	     -0.00012558	     -0.00015069	      0.00239666	      0.00840862	      0.00584948	     -0.00783993	      0.01892956	     -0.01795465	      0.00239666	      0.00840862	      0.00584948	      0.00052808	      0.01754843	     -0.00922105	      0.00383083	      0.00467593	      0.01567429	      0.00000000	      0.00714614	      0.00000000	     -0.00686501	     -0.03172529	     -0.00588852	      0.02329852	     -0.00119242	     -0.01425061	     -0.00085305	      0.01429872	     -0.00584948	      0.00235604	      0.02063566	     -0.01706098	     -0.00572761	      0.01238952	     -0.00524016	     -0.01194268	      0.02616016	     -0.02928801	     -0.02242300	      0.01385189	     -0.00702750	     -0.01486742	      0.03022230	     -0.03659986
